{"title":"Cellular 2004 DVDRip Xvid BigPerm LKRG","uid":6625006,"size":1165745127,"categoryP":"video","categoryS":"movies","magnet":"?xt=urn:btih:5788d87f9e2af19954994a0a1304cba914f36854&amp;dn=Cellular+2004+DVDRip+Xvid+BigPerm+LKRG&amp;tr=udp%3A%2F%2Ftracker.openbittorrent.com%3A80&amp;tr=udp%3A%2F%2Fopen.demonii.com%3A1337&amp;tr=udp%3A%2F%2Ftracker.coppersurfer.tk%3A6969&amp;tr=udp%3A%2F%2Fexodus.desync.com%3A6969","seeders":1,"leechers":0,"uploader":".BONE.","files":2,"time":1314127804,"description":"PLOT\n\nA young man receives an emergency phone call on his cell phone from an older woman. The\ncatch? The woman claims to have been kidnapped; and the kidnappers have targeted her\nhusband and child next.\n &lt;a href=&quot;\nhttp://www.imdb.com/title/tt0337921/&quot; rel=&quot;nofollow&quot; target=&quot;_NEW&quot;&gt;\nhttp://www.imdb.com/title/tt0337921/&lt;/a&gt;\n\nEncoded By .......: BigPerm1828\nRuntime ..........: 1h 33mn\nFile Size ........: 1.09 GB\nResolution .......: 704 x 396\nIMDb URL .........: http://www.imdb.com/title/tt0337921/\nGenre ............: Crime | Thriller\nLanguage .........: English\nVideo\nID : 0\nFormat : MPEG-4 Visual\nCodec ID : XVID\nCodec ID/Hint : XviD\nDuration : 1h 33mn\nBit rate : 56.2 Kbps\nWidth : 704 pixels\nHeight : 396 pixels\nDisplay aspect ratio : 16:9\nFrame rate : 29.970 fps\nColor space : YUV\nChroma subsampling : 4:2:0\nCompression mode : Lossy\nBits/(Pixel*Frame) : 0.007\nStream size : 37.7 MiB (3%)\n\nAudio\nID : 1\nFormat : AC-3\nFormat/Info : Audio Coding 3\nCodec ID : 2000\nDuration : 1h 33mn\nBit rate mode : Constant\nBit rate : 448 Kbps\nChannel(s) : 6 channels\nSampling rate : 48.0 KHz\nBit depth : 16 bits\nCompression mode : Lossy\nStream size : 301 MiB (27%)\nAlignment : Aligned on interleaves\n &lt;a href=&quot;\nhttp://www.shotpix.com/images/07976518202472570662.png&quot; rel=&quot;nofollow&quot; target=&quot;_NEW&quot;&gt;\nhttp://www.shotpix.com/images/07976518202472570662.png&lt;/a&gt;\n &lt;a href=&quot;\nhttp://www.shotpix.com/images/45655801027084783094.png&quot; rel=&quot;nofollow&quot; target=&quot;_NEW&quot;&gt;\nhttp://www.shotpix.com/images/45655801027084783094.png&lt;/a&gt;\n &lt;a href=&quot;\nhttp://www.shotpix.com/images/64303349645574123381.png&quot; rel=&quot;nofollow&quot; target=&quot;_NEW&quot;&gt;\nhttp://www.shotpix.com/images/64303349645574123381.png&lt;/a&gt;\n &lt;a href=&quot;\nhttp://www.shotpix.com/images/26528723583795913435.png&quot; rel=&quot;nofollow&quot; target=&quot;_NEW&quot;&gt;\nhttp://www.shotpix.com/images/26528723583795913435.png&lt;/a&gt;\n &lt;a href=&quot;\nhttp://www.shotpix.com/images/27317777796169807561.png&quot; rel=&quot;nofollow&quot; target=&quot;_NEW&quot;&gt;\nhttp://www.shotpix.com/images/27317777796169807561.png&lt;/a&gt;","torrent":{"xt":"urn:btih:5788d87f9e2af19954994a0a1304cba914f36854","amp;dn":"Cellular+2004+DVDRip+Xvid+BigPerm+LKRG","amp;tr":["udp%3A%2F%2Ftracker.openbittorrent.com%3A80","udp%3A%2F%2Fopen.demonii.com%3A1337","udp%3A%2F%2Ftracker.coppersurfer.tk%3A6969","udp%3A%2F%2Fexodus.desync.com%3A6969"],"infoHash":"5788d87f9e2af19954994a0a1304cba914f36854","infoHashBuffer":{"type":"Buffer","data":[87,136,216,127,158,42,241,153,84,153,74,10,19,4,203,169,20,243,104,84]},"announce":[],"urlList":[]}}